<?xml version="1.0" encoding="UTF-8"?>
<svg width="24px" height="62px" viewBox="0 0 24 62" version="1.1" xmlns="http://www.w3.org/2000/svg" xmlns:xlink="http://www.w3.org/1999/xlink">
    <!-- Generator: Sketch 46.2 (44496) - http://www.bohemiancoding.com/sketch -->
    <title>Fill 1 Copy 4@2x</title>
    <desc>Created with Sketch.</desc>
    <defs></defs>
    <g id="SNCN小程序" stroke="none" stroke-width="1" fill="none" fill-rule="evenodd">
        <g id="G图片上传" transform="translate(-364.000000, -532.000000)" fill="#D6D6D6">
            <path d="M387.969703,555.082192 C387.772531,553.124822 387.497427,546.977317 383.206214,539.858501 C383.206214,539.858501 380.155167,534.734457 375.859658,532.671812 C375.859658,532.671812 371.063747,530.658777 367.487395,533.601911 C367.487395,533.601911 361.531788,541.026985 365.186267,554.20932 C365.186267,554.20932 368.122956,562.93335 368.512028,566.119165 C368.900806,569.304493 368.586443,575.775833 368.586443,575.775833 C368.586443,575.775833 367.771971,582.432628 368.061138,584.480429 C368.061138,584.480429 367.877247,590.221284 373.409113,592.821051 C373.409113,592.821051 381.900422,595.169835 385.538202,588.400539 C385.538202,588.400539 386.343103,586.480963 386.410976,583.428354 C386.410976,583.428354 386.142415,572.178485 386.750925,568.393144 C387.359337,564.607705 388.166973,557.039561 387.969703,555.082192 Z" id="Fill-1-Copy-4" transform="translate(376.000000, 562.607618) scale(1, -1) translate(-376.000000, -562.607618) "></path>
        </g>
    </g>
</svg>