<?xml version="1.0" encoding="UTF-8"?>
<svg width="48px" height="39px" viewBox="0 0 48 39" version="1.1" xmlns="http://www.w3.org/2000/svg" xmlns:xlink="http://www.w3.org/1999/xlink">
    <!-- Generator: Sketch 46.2 (44496) - http://www.bohemiancoding.com/sketch -->
    <title>Group@2x</title>
    <desc>Created with Sketch.</desc>
    <defs></defs>
    <g id="SNCN小程序" stroke="none" stroke-width="1" fill="none" fill-rule="evenodd">
        <g id="G图片上传" transform="translate(-352.000000, -308.000000)">
            <g id="Group" transform="translate(352.000000, 308.000000)">
                <path d="M3.89174886,0 C1.7057299,0.129460964 -0.000766161071,1.94025389 2.58057797e-07,4.13023268 L2.58057797e-07,10.2448522 C0.0157118502,12.0451069 1.19427287,13.6285927 2.91424513,14.1604876 L3.03949079,34.6979016 C3.05897061,36.9739748 4.89939841,38.8144026 7.17547161,38.8338824 L40.8362804,38.8338824 C43.1207842,38.8338824 44.9725167,36.9822138 44.9725167,34.6979016 L45.0976985,14.1842466 C46.788483,13.656567 47.9553561,12.1107635 48,10.3401437 L48,4.08233149 C47.9772629,1.92601127 46.3014875,0.148940784 44.1499574,0 L27.0801408,0 C27.0801428,0.954363509 25.7075927,1.72642296 24.0144663,1.72642296 C22.3213399,1.72642296 20.9487898,0.954363509 20.9487898,0.00197991608 C20.9487898,0.00153987694 15.2631095,0.000879904916 3.89174886,0 Z" id="Combined-Shape-Copy-27" fill="#D6D6D6"></path>
                <path d="M24.7009696,26 L37.260478,26 C38.7521823,26 39.9614476,27.2842265 39.9614476,28.8684003 L39.9614476,31.0914104 C39.9614476,32.6755842 38.7521823,33.9598107 37.260478,33.9598107 L24.7009696,33.9598107 C23.2092653,33.9598107 22,32.6755842 22,31.0914104 L22,28.8684003 C22,27.2842265 23.2092653,26 24.7009696,26 Z" id="Rectangle-9" fill="#FF616C"></path>
            </g>
        </g>
    </g>
</svg>