<?xml version="1.0" encoding="UTF-8"?>
<svg width="50px" height="42px" viewBox="0 0 50 42" version="1.1" xmlns="http://www.w3.org/2000/svg" xmlns:xlink="http://www.w3.org/1999/xlink">
    <!-- Generator: Sketch 46.2 (44496) - http://www.bohemiancoding.com/sketch -->
    <title>Group 2@2x</title>
    <desc>Created with Sketch.</desc>
    <defs></defs>
    <g id="SNCN小程序" stroke="none" stroke-width="1" fill="none" fill-rule="evenodd">
        <g id="G图片上传" transform="translate(-590.000000, -306.000000)">
            <g id="Group-2" transform="translate(590.000000, 306.000000)">
                <path d="M16,6 L26,6 L26,6 C27.1045695,6 28,6.8954305 28,8 L28,10 L28,10 C28,11.1045695 27.1045695,12 26,12 L16,12 L16,12 C14.8954305,12 14,11.1045695 14,10 L14,8 L14,8 C14,6.8954305 14.8954305,6 16,6 Z" id="Rectangle-10" fill="#FF616C"></path>
                <path d="M49.8863415,24.0334571 L38.5226265,0.699865559 C38.2955093,0.233379666 37.954534,0 37.4999001,0 L12.5000333,0 C12.0453995,0 11.7044241,0.233379666 11.4773735,0.699865559 L0.113658457,24.0334571 C0,24.150147 0,24.2668368 0,24.499943 L0,40.8333751 C0,41.5335141 0.454633829,42 1.13631824,42 L48.8636152,42 C49.5452996,42 50,41.5335141 50,40.8333751 L50,24.499943 C50,24.2668368 50,24.150147 49.8863415,24.0334571 Z M13.1817843,2.33331814 L36.8182157,2.33331814 L47.0453462,23.3333181 L32.9545606,23.3333181 C32.2725433,23.3333181 31.8181758,23.8000775 31.8181758,24.499943 C31.8181758,28.3500239 28.7498635,31.5001709 24.9998668,31.5001709 C21.2500699,31.5001709 18.1817577,28.3500239 18.1817577,24.499943 C18.1817577,23.8000775 17.7271238,23.3333181 17.0454394,23.3333181 L2.9546538,23.3333181 L13.1817843,2.33331814 Z" id="盒子(1)" fill="#D6D6D6"></path>
            </g>
        </g>
    </g>
</svg>