<?xml version="1.0" encoding="UTF-8"?>
<svg width="60px" height="29px" viewBox="0 0 60 29" version="1.1" xmlns="http://www.w3.org/2000/svg" xmlns:xlink="http://www.w3.org/1999/xlink">
    <!-- Generator: Sketch 46.2 (44496) - http://www.bohemiancoding.com/sketch -->
    <title>Shape Copy@2x</title>
    <desc>Created with Sketch.</desc>
    <defs></defs>
    <g id="SNCN小程序" stroke="none" stroke-width="1" fill="none" fill-rule="evenodd">
        <g id="G图片上传" transform="translate(-108.000000, -312.000000)" fill="#D6D6D6">
            <path d="M155,321.4 C154,321.2 152.8,320.8 151.6,320.6 L138.6,333.6 L168,333.6 L168,333 C168,324.6 161.2,322.8 155,321.4 L155,321.4 Z M134,333.4 C134,333.2 134.2,333 134.2,333 L148,319.2 L147.8,319.2 L144.2,317.4 L128.2,333.4 L134,333.4 L134,333.4 Z M123.8,333 L141.2,315.6 C138.4,313.8 136.8,312.6 136.6,312.4 C136.2,312.2 135.8,312 135.4,312 L132.8,312 C132,312 131.2,312.6 131,313.4 C131,313.6 129.6,319 122.8,319 C115.8,319 113.4,313.6 113.4,313.4 C113.2,312.6 112.6,312.2 111.8,312.2 L109.8,312.2 C108.8,312.2 108,313 108,314 L108,333.4 L123.4,333.4 C123.6,333.2 123.6,333 123.8,333 L123.8,333 Z M115.6,329.6 C115.2,330 114.8,330.2 114.4,330.2 C114,330.2 113.4,330 113.2,329.6 C112.6,329 112.4,327.8 113.2,327 C113.8,326.4 115,326.2 115.6,327 L115.6,327 C116.4,327.8 116.4,328.8 115.6,329.6 L115.6,329.6 Z M122.8,329.6 C122.4,330 122,330.2 121.6,330.2 C121.2,330.2 120.6,330 120.4,329.6 C119.8,329 119.6,327.8 120.4,327 C121,326.4 122.2,326.2 122.8,327 L122.8,327 C123.4,327.8 123.4,328.8 122.8,329.6 L122.8,329.6 Z M108,338.8 C108,339.8 108.8,340.6 109.8,340.6 L166.2,340.6 C167.2,340.6 168,339.8 168,338.8 L168,337 L108,337 L108,338.8 L108,338.8 Z" id="Shape-Copy"></path>
        </g>
    </g>
</svg>