<?xml version="1.0" encoding="UTF-8"?>
<svg width="44px" height="44px" viewBox="0 0 44 44" version="1.1" xmlns="http://www.w3.org/2000/svg" xmlns:xlink="http://www.w3.org/1999/xlink">
    <!-- Generator: Sketch 46.2 (44496) - http://www.bohemiancoding.com/sketch -->
    <title>Group 3@2x</title>
    <desc>Created with Sketch.</desc>
    <defs></defs>
    <g id="SNCN小程序" stroke="none" stroke-width="1" fill="none" fill-rule="evenodd">
        <g id="G图片上传" transform="translate(-116.000000, -540.000000)">
            <g id="Group-3" transform="translate(116.000000, 540.000000)">
                <path d="M40.2285714,0 L3.70526316,0 C1.66134737,0.00621954887 0.00621954887,1.66134737 0,3.70526316 L0,15.3382015 C0,15.6305203 0.237004511,15.8675248 0.529323308,15.8675248 L1.04005414,15.8675248 L1.04005414,40.7563729 C1.0454797,42.5081684 2.46413233,43.9270857 4.21599398,43.9323128 L39.6806556,43.9323128 C41.4324511,43.9270857 42.8514346,42.5081684 42.8565955,40.7563729 L42.8565955,15.8675248 L43.4070917,15.8675248 C43.6994105,15.8675248 43.936415,15.6305203 43.936415,15.3382015 L43.936415,3.70526316 C43.9304602,1.66035489 42.2734797,0.00463157895 40.2285714,0 Z" id="Fill-1" fill="#D6D6D6"></path>
                <path d="M4,37.6090226 L5.05864662,37.6090226 L5.05864662,30 L4,30 L4,37.6090226 Z M8.36691729,37.6090226 L9.42556391,37.6090226 L9.42556391,30 L8.36691729,30 L8.36691729,37.6090226 Z M9.95488722,37.6090226 L11.6090226,37.6090226 L11.6090226,30 L9.95488722,30 L9.95488722,37.6090226 Z M5.65413534,37.6090226 L6.18345865,37.6090226 L6.18345865,30 L5.65413534,30 L5.65413534,37.6090226 Z M7.24210526,37.6090226 L7.77142857,37.6090226 L7.77142857,30 L7.24210526,30 L7.24210526,37.6090226 Z M12.1383459,37.6090226 L12.1383459,30 L12.6676692,30 L12.6676692,37.6090226 L12.1383459,37.6090226 Z M22.2616541,37.6090226 L22.2616541,30 L23.3203008,30 L23.3203008,37.6090226 L22.2616541,37.6090226 Z M26.6285714,37.6090226 L26.6285714,30 L27.687218,30 L27.687218,37.6090226 L26.6285714,37.6090226 Z M28.2165414,37.6090226 L28.2165414,30 L29.8706767,30 L29.8706767,37.6090226 L28.2165414,37.6090226 Z M23.9157895,37.6090226 L23.9157895,30 L24.4451128,30 L24.4451128,37.6090226 L23.9157895,37.6090226 Z M25.5037594,37.6090226 L25.5037594,30 L26.0330827,30 L26.0330827,37.6090226 L25.5037594,37.6090226 Z M30.4,37.6090226 L30.4,30 L30.9293233,30 L30.9293233,37.6090226 L30.4,37.6090226 Z M13.593985,37.6090226 L13.593985,30 L14.6526316,30 L14.6526316,37.6090226 L13.593985,37.6090226 Z M17.9609023,37.6090226 L17.9609023,30 L19.0195489,30 L19.0195489,37.6090226 L17.9609023,37.6090226 Z M19.5488722,37.6090226 L19.5488722,30 L21.2030075,30 L21.2030075,37.6090226 L19.5488722,37.6090226 Z M15.2481203,37.6090226 L15.2481203,30 L15.7774436,30 L15.7774436,37.6090226 L15.2481203,37.6090226 Z M16.8360902,37.6090226 L16.8360902,30 L17.3654135,30 L17.3654135,37.6090226 L16.8360902,37.6090226 Z M21.7323308,37.6090226 L21.7323308,30 L22.2616541,30 L22.2616541,37.6090226 L21.7323308,37.6090226 Z M31.8556391,37.6090226 L31.8556391,30 L32.9142857,30 L32.9142857,37.6090226 L31.8556391,37.6090226 Z M36.2225564,37.6090226 L36.2225564,30 L37.281203,30 L37.281203,37.6090226 L36.2225564,37.6090226 Z M37.8105263,37.6090226 L37.8105263,30 L39.4646617,30 L39.4646617,37.6090226 L37.8105263,37.6090226 Z M33.5097744,37.6090226 L33.5097744,30 L34.0390977,30 L34.0390977,37.6090226 L33.5097744,37.6090226 Z M35.0977444,37.6090226 L35.0977444,30 L35.6270677,30 L35.6270677,37.6090226 L35.0977444,37.6090226 Z M39.993985,37.6090226 L39.993985,30 L40.5233083,30 L40.5233083,37.6090226 L39.993985,37.6090226 Z" id="Combined-Shape" fill="#FFFFFF"></path>
                <rect id="Rectangle-11-Copy" fill="#FF616C" x="4" y="20" width="36.7879699" height="7.60902256" rx="1.28"></rect>
            </g>
        </g>
    </g>
</svg>