<?xml version="1.0" encoding="UTF-8"?>
<svg width="24px" height="60px" viewBox="0 0 24 60" version="1.1" xmlns="http://www.w3.org/2000/svg" xmlns:xlink="http://www.w3.org/1999/xlink">
    <!-- Generator: Sketch 46.2 (44496) - http://www.bohemiancoding.com/sketch -->
    <title>Fill 1 Copy 7@2x</title>
    <desc>Created with Sketch.</desc>
    <defs></defs>
    <g id="SNCN小程序" stroke="none" stroke-width="1" fill="none" fill-rule="evenodd">
        <g id="G图片上传" transform="translate(-602.000000, -532.000000)" fill="#D6D6D6">
            <path d="M625.969703,554.623968 C625.772531,552.705456 625.497427,546.67999 621.206214,539.702495 C621.206214,539.702495 618.155167,534.680173 613.859658,532.658475 C613.859658,532.658475 609.063747,530.685403 605.487395,533.57011 C605.487395,533.57011 599.531788,540.847782 603.186267,553.768424 C603.186267,553.768424 606.122956,562.319265 606.512028,565.441837 C606.900806,568.563929 606.586443,574.906802 606.586443,574.906802 C606.586443,574.906802 605.771971,581.431446 606.061138,583.438595 C606.061138,583.438595 605.877247,589.065483 611.409113,591.61364 C611.409113,591.61364 619.900422,593.915797 623.538202,587.280883 C623.538202,587.280883 624.343103,585.399415 624.410976,582.407406 C624.410976,582.407406 624.142415,571.380867 624.750925,567.670672 C625.359337,563.960381 626.166973,556.54248 625.969703,554.623968 Z M623.00147,567.339003 C622.561617,570.83536 622.954497,581.203059 622.954497,581.203059 C622.946098,584.017413 622.31708,585.796461 622.31708,585.796461 C619.445334,592.078073 612.463532,590.009281 612.463532,590.009281 C607.898681,587.675728 607.960498,582.381178 607.960498,582.381178 C607.692719,580.497125 608.256501,574.350861 608.256501,574.350861 C608.256501,574.350861 608.414513,568.382157 608.047512,565.449973 C607.680512,562.517501 605.144027,554.508817 605.144027,554.508817 C601.952254,542.398347 606.709981,535.485272 606.709981,535.485272 C609.589833,532.731796 613.54383,534.53286 613.54383,534.53286 C617.088932,536.385612 619.663503,541.074351 619.663503,541.074351 C623.28302,547.588179 623.602656,553.252111 623.793774,555.054324 C623.985282,556.856153 623.441324,563.842263 623.00147,567.339003 Z" id="Fill-1-Copy-7"></path>
        </g>
    </g>
</svg>