<?xml version="1.0" encoding="UTF-8"?>
<svg width="50px" height="50px" viewBox="0 0 50 50" version="1.1" xmlns="http://www.w3.org/2000/svg" xmlns:xlink="http://www.w3.org/1999/xlink">
    <!-- Generator: Sketch 46.2 (44496) - http://www.bohemiancoding.com/sketch -->
    <title>危险</title>
    <desc>Created with Sketch.</desc>
    <defs></defs>
    <g id="SNCN小程序" stroke="none" stroke-width="1" fill="none" fill-rule="evenodd">
        <g id="G-5无法鉴定-Copy" transform="translate(-212.000000, -149.000000)" fill-rule="nonzero" fill="#F23C3C">
            <g id="危险" transform="translate(212.000000, 149.000000)">
                <path d="M25.0000286,0 C11.1929172,0 0,11.1929043 0,25 C0,38.8070956 11.19286,50 25.0000286,50 C38.80714,50 50.0000001,38.8071528 50,25 C50.0000571,11.1929044 38.80714,0 25.0000286,0 Z M26.9230989,36.7318982 C26.9230989,37.7940044 26.0620789,38.6549663 25.0000286,38.6549663 C23.9379211,38.6549663 23.0769582,37.7940044 23.0769582,36.7318982 L23.0769582,36.5384659 C23.0769582,35.4764168 23.9379211,34.6153978 25.0000286,34.6153978 C26.0620789,34.6153978 26.9230989,35.4764168 26.9230989,36.5384659 L26.9230989,36.7318982 Z M26.9230989,29.0395685 C26.9230989,30.1016747 26.0620789,30.9626366 25.0000286,30.9626366 C23.9379211,30.9626366 23.0769582,30.1016747 23.0769582,29.0395685 L23.0769582,13.4615341 C23.0769582,12.399485 23.9379211,11.5384659 25.0000286,11.5384659 C26.0620789,11.5384659 26.9230989,12.399485 26.9230989,13.4615341 L26.9230989,29.0395685 Z" id="Shape"></path>
            </g>
        </g>
    </g>
</svg>