<?xml version="1.0" encoding="UTF-8"?>
<svg width="50px" height="50px" viewBox="0 0 50 50" version="1.1" xmlns="http://www.w3.org/2000/svg" xmlns:xlink="http://www.w3.org/1999/xlink">
    <!-- Generator: Sketch 46.2 (44496) - http://www.bohemiancoding.com/sketch -->
    <title>时间</title>
    <desc>Created with Sketch.</desc>
    <defs></defs>
    <g id="SNCN小程序" stroke="none" stroke-width="1" fill="none" fill-rule="evenodd">
        <g id="G鉴定详情页-正在鉴定中" transform="translate(-188.000000, -152.000000)" fill-rule="nonzero" fill="#333333">
            <g id="时间" transform="translate(188.000000, 152.000000)">
                <path d="M24.9999687,0 C38.8070316,0 49.9999375,11.1927106 49.9999375,24.9999687 C49.9999375,38.8070316 38.8070316,49.9997422 24.9999687,49.9997422 C19.6314208,49.9997422 14.6581848,48.306922 10.5845571,45.4265057 C9.67142346,45.1318284 9.01077975,44.2748958 9.01077975,43.2636178 L8.99007665,43.0525341 C8.99007665,41.7977505 10.0074094,40.7802225 11.2623883,40.7802225 C11.9706393,40.7802225 12.6028163,41.104099 13.0195638,41.6117644 C16.3825479,44.0300231 20.508031,45.4551678 24.9664239,45.4551678 C36.2818394,45.4551678 45.4549725,36.2820347 45.4549725,24.9666192 C45.4549725,13.6509595 36.2818394,4.47767995 24.9664239,4.47767995 C13.6510083,4.47767995 4.47787526,13.6510083 4.47787526,24.9666192 C4.47787526,28.0943008 5.17987634,31.0578713 6.43329274,33.7096747 L6.08343966,34.0592836 C6.91366323,34.3976621 7.49881875,35.212456 7.49881875,36.1644079 L7.51971716,36.3753452 C7.51971716,37.6304705 6.50214031,38.6476079 5.24721024,38.6476079 C4.20453576,38.6476079 3.32592358,37.9456069 3.05839461,36.9883815 C1.10942244,33.4289133 0,29.3442016 0,24.9999687 C0,11.1929059 11.1929059,0 24.9999687,0 Z M38.6930669,22.7378134 L27.2656397,22.7204306 L27.2828272,11.3839213 C27.2828272,10.1289424 26.2654945,9.11146322 25.0103203,9.11146322 C23.7553414,9.11146322 22.7380087,10.1289424 22.7380087,11.3839213 L22.7176962,24.6844906 C22.684694,24.9317037 22.6921482,25.1826402 22.7397665,25.4274584 C22.8952839,26.5308262 23.8431343,27.3796044 24.9894219,27.3796044 C25.2413259,27.3796044 25.4836596,27.3385889 25.7097823,27.2631007 L38.6930669,27.2826319 C39.9480458,27.2826319 40.965525,26.2650551 40.965525,25.010125 C40.965525,23.7551949 39.9480458,22.7378134 38.6930669,22.7378134 L38.6930669,22.7378134 Z" id="Shape"></path>
            </g>
        </g>
    </g>
</svg>