<?xml version="1.0" encoding="UTF-8"?>
<svg width="15px" height="15px" viewBox="0 0 15 15" version="1.1" xmlns="http://www.w3.org/2000/svg" xmlns:xlink="http://www.w3.org/1999/xlink">
    <!-- Generator: Sketch 46.2 (44496) - http://www.bohemiancoding.com/sketch -->
    <title>搜索-2@2x</title>
    <desc>Created with Sketch.</desc>
    <defs></defs>
    <g id="SNCN小程序" stroke="none" stroke-width="1" fill="none" fill-rule="evenodd">
        <g id="B-2搜索商品-Copy" transform="translate(-20.000000, -77.000000)" fill="#858585">
            <g id="Group-3" transform="translate(10.000000, 68.000000)">
                <path d="M25,22.6496159 L23.6501111,24 L20.6718873,21.0226671 C19.5569469,21.8578538 18.1862549,22.3702496 16.6849421,22.3702496 C12.9922883,22.369328 10,19.3768628 10,15.6850879 C10,11.9924468 12.9922883,9 16.6858785,9 C20.3775958,9 23.3699576,11.9924468 23.3699576,15.6850879 C23.3699576,17.1855966 22.857573,18.5568084 22.0227861,19.6712692 L25,22.6496159 Z M16.6858785,10.9109783 C14.048051,10.9109783 11.9112058,13.0484429 11.9112058,15.6861017 C11.9112058,18.3227467 14.048051,20.4611513 16.6858785,20.4611513 C19.3219066,20.4611513 21.4606246,18.3227467 21.4606246,15.6861017 C21.4606246,13.0475213 19.3219066,10.9109783 16.6858785,10.9109783 Z" id="搜索-2"></path>
            </g>
        </g>
    </g>
</svg>