<?xml version="1.0" encoding="UTF-8"?>
<svg width="42px" height="42px" viewBox="0 0 42 42" version="1.1" xmlns="http://www.w3.org/2000/svg" xmlns:xlink="http://www.w3.org/1999/xlink">
    <!-- Generator: Sketch 46.2 (44496) - http://www.bohemiancoding.com/sketch -->
    <title>诊断@2x</title>
    <desc>Created with Sketch.</desc>
    <defs></defs>
    <g id="SNCN小程序" stroke="none" stroke-width="1" fill="none" fill-rule="evenodd">
        <g id="A—1首页" transform="translate(-538.000000, -682.000000)" fill-rule="nonzero" fill="#FFFFFF">
            <g id="诊断" transform="translate(538.000000, 682.000000)">
                <path d="M32.6444285,34.9310745 C29.0663427,37.9766906 24.5190188,39.6464456 19.8198316,39.6402033 C13.0927622,39.6417144 6.82583021,36.225717 3.18282155,30.571654 C2.91371474,30.1598812 2.82793585,29.6547925 2.94601785,29.1772915 C3.06409984,28.6997905 3.37541388,28.292858 3.80544048,28.053902 C4.58884114,27.6272644 5.59384984,27.839435 6.07418517,28.5900694 C9.06347934,33.2913883 14.2477925,36.1401772 19.8198316,36.1433255 C24.7229859,36.1365997 29.3642984,33.9302417 32.4644878,30.1323881 C35.5646771,26.3345345 36.796444,21.3461399 35.8202774,16.5421515 C34.5331624,9.98667947 29.1188384,4.7880083 22.5246147,3.72498207 C15.7640762,2.59662048 9.01859975,5.81126014 5.63810584,11.7724553 C5.16046503,12.5760259 4.12958398,12.8530758 3.31333363,12.397239 C2.47862228,11.9426347 2.12416426,10.8819048 2.59285111,10.0590159 C6.71854509,2.76134198 14.9933799,-1.14834002 23.2521519,0.297939306 C31.7653792,1.72703565 38.4737908,8.82330895 39.4950827,17.3930482 C40.1772497,22.8920227 38.5219956,28.4250297 34.9318764,32.6464477 C35.5657007,32.6338311 36.1771875,32.8805486 36.6247191,33.3294614 L41.2882089,37.9919651 C41.8942903,38.5772988 42.1373341,39.4440317 41.923934,40.2590621 C41.7105339,41.0740925 41.0738966,41.7105951 40.2586939,41.9239501 C39.4434912,42.1373051 38.5765749,41.8943126 37.9911175,41.2883594 L33.3276277,36.6258557 C32.8786154,36.1784355 32.6318314,35.567094 32.6444285,34.9334119 L32.6444285,34.9310745 Z M0,20.9901883 C0,20.0180747 0.783482673,19.2417699 1.74882918,19.2417699 L8.24506636,19.2417699 L12.4281798,10.8842012 C12.7164939,10.307415 13.2989271,9.93609301 13.9436151,9.91805706 C14.5883031,9.90002111 15.1905939,10.238199 15.5107178,10.7979633 L23.2171655,24.2795703 L26.4186491,17.8779568 C26.7143236,17.2858666 27.319016,16.9114143 27.9809387,16.910518 L30.3126836,16.910518 C30.9394906,16.9074828 31.5199875,17.240068 31.8342706,17.7822837 C32.1485538,18.3244995 32.1485538,18.9934143 31.8342706,19.5356301 C31.5199875,20.0778459 30.9394906,20.4104311 30.3126836,20.4073958 L29.062852,20.4073958 L24.8820354,28.7649235 C24.5937213,29.3417097 24.0112881,29.7130317 23.3666001,29.7310677 C22.7219121,29.7491036 22.1196213,29.4109258 21.7994974,28.8511614 L14.0930087,15.3695544 L10.891525,21.7711679 C10.595492,22.3640136 9.98969806,22.7386131 9.32693857,22.7386477 L1.75346396,22.7386477 C0.787919114,22.7360939 0.00510987573,21.9555188 0,20.9901883 Z" id="Shape"></path>
            </g>
        </g>
    </g>
</svg>